<?xml version="1.0" encoding="utf-8"?>
<!-- Generator: Adobe Illustrator 21.1.0, SVG Export Plug-In . SVG Version: 6.00 Build 0)  -->
<svg version="1.1" id="Camada_1" xmlns="http://www.w3.org/2000/svg" xmlns:xlink="http://www.w3.org/1999/xlink" x="0px" y="0px"
	 viewBox="0 0 1277 1427" style="enable-background:new 0 0 1277 1427;" xml:space="preserve">
<style type="text/css">
	.st0{opacity:6.000000e-02;}
	.st1{fill:#D0D0D0;}
	.st2{fill:#E3E3E3;}
	.st3{fill:#D1D1D1;}
	.st4{fill:#D3D3D3;}
	.st5{fill:#D9D9D9;}
	.st6{fill:#CECECE;}
	.st7{fill:#EAEAEA;}
	.st8{fill:#F4F4F4;}
	.st9{fill:#D7D7D7;}
	.st10{fill:#F1F1F1;}
	.st11{fill:#F0F0F0;}
	.st12{fill:#EDEDED;}
	.st13{fill:#E4E4E4;}
	.st14{fill:#D5D5D5;}
	.st15{fill:#CFCFCF;}
	.st16{fill:#DFDFDF;}
	.st17{fill:#ECECEC;}
	.st18{fill:#EBEBEB;}
	.st19{fill:#989898;}
	.st20{fill:#E6E6E6;}
	.st21{fill:#C7C7C7;}
	.st22{fill:#D8D8D8;}
	.st23{fill:#EEEEEE;}
	.st24{fill:#E7E7E7;}
	.st25{fill:#E5E5E5;}
	.st26{fill:#C6C6C6;}
	.st27{fill:none;}
	.st28{fill:#B5B5B5;}
	.st29{fill:#797979;}
	.st30{fill:#D2D2D2;}
	.st31{fill:#8C8C8C;}
	.st32{fill:#686868;}
	.st33{fill:#E9E9E9;}
	.st34{fill:#ACACAC;}
	.st35{fill:#BABABA;}
	.st36{fill:#A4A4A4;}
	.st37{fill:#E8E8E8;}
	.st38{fill:#9D9D9D;}
	.st39{fill:#A8A8A8;}
	.st40{fill:#707070;}
	.st41{fill:#A9A9A9;}
	.st42{fill:#8E8E8E;}
	.st43{fill:#959595;}
	.st44{fill:#6B6B6B;}
	.st45{fill:#E1E1E1;}
	.st46{fill:#ABABAB;}
	.st47{fill:#A3A3A3;}
	.st48{fill:#B6B6B6;}
	.st49{fill:#AEAEAE;}
	.st50{fill:#9C9C9C;}
	.st51{fill:#BBBBBB;}
	.st52{fill:#B7B7B7;}
	.st53{fill:#7C7C7C;}
	.st54{fill:#BFBFBF;}
	.st55{fill:#BDBDBD;}
	.st56{fill:#656565;}
	.st57{fill:#9E9E9E;}
	.st58{fill:#6A6A6A;}
	.st59{fill:#939393;}
	.st60{fill:#D4D4D4;}
	.st61{fill:#DCDCDC;}
	.st62{fill:#C1C1C1;}
	.st63{fill:#B2B2B2;}
	.st64{fill:#818181;}
	.st65{fill:#DBDBDB;}
	.st66{fill:#E2E2E2;}
	.st67{fill:#737373;}
	.st68{fill:#8F8F8F;}
	.st69{fill:#B9B9B9;}
	.st70{fill:#B8B8B8;}
	.st71{fill:#AFAFAF;}
	.st72{fill:#DADADA;}
	.st73{fill:#C2C2C2;}
	.st74{fill:#7F7F7F;}
	.st75{fill:#CDCDCD;}
	.st76{fill:#6D6D6D;}
	.st77{fill:#8B8B8B;}
	.st78{fill:#8A8A8A;}
	.st79{fill:#B1B1B1;}
	.st80{fill:#B4B4B4;}
	.st81{fill:#9A9A9A;}
	.st82{fill:none;stroke:#F2F2F2;stroke-miterlimit:10;}
</style>
<g>
	<g id="Feature_Page_-_Horizontal_3_">
		<g>
			<defs>
				<rect id="SVGID_1_" x="1" width="1276" height="713"/>
			</defs>
			<use xlink:href="#SVGID_1_"  style="overflow:visible;fill:#F2F2F2;"/>
			<clipPath id="SVGID_2_">
				<use xlink:href="#SVGID_1_"  style="overflow:visible;"/>
			</clipPath>
		</g>
		<g class="st0">
			<polygon class="st1" points="1051.8,0 1126.9,64.8 1201.9,0 			"/>
			<polygon class="st2" points="1277,64.8 1201.9,0 1126.9,64.8 			"/>
			<polygon class="st3" points="1126.9,64.8 1051.8,0 976.8,64.8 			"/>
			<polygon class="st4" points="901.7,0 976.8,64.8 1051.8,0 			"/>
			<polygon class="st5" points="1201.9,0 1277,64.8 1277,0 			"/>
			<polygon class="st6" points="976.8,64.8 901.7,0 826.6,64.8 			"/>
			<polygon class="st7" points="826.6,64.8 751.6,0 676.5,64.8 			"/>
			<polygon class="st8" points="601.5,0 676.5,64.8 751.6,0 			"/>
			<polygon class="st9" points="751.6,0 826.6,64.8 901.7,0 			"/>
			<polygon class="st8" points="676.5,64.8 601.5,0 526.4,64.8 			"/>
			<polygon class="st10" points="526.4,64.8 451.4,0 376.3,64.8 			"/>
			<polygon class="st11" points="301.2,0 376.3,64.8 451.4,0 			"/>
			<polygon class="st12" points="451.4,0 526.4,64.8 601.5,0 			"/>
			<polygon class="st13" points="376.3,64.8 301.2,0 226.2,64.8 			"/>
			<polygon class="st14" points="226.2,64.8 151.1,0 76.1,64.8 			"/>
			<polygon class="st5" points="76.1,64.8 1,0 1,64.8 			"/>
			<polygon class="st15" points="1,0 76.1,64.8 151.1,0 			"/>
			<polygon class="st16" points="151.1,0 226.2,64.8 301.2,0 			"/>
			<polygon class="st17" points="1201.9,129.6 1126.9,64.8 1051.8,129.6 			"/>
			<polygon class="st18" points="1051.8,129.6 976.8,64.8 901.7,129.6 			"/>
			<polygon class="st13" points="826.6,64.8 901.7,129.6 976.8,64.8 			"/>
			<polygon class="st19" points="976.8,64.8 1051.8,129.6 1126.9,64.8 			"/>
			<polygon class="st9" points="1277,129.6 1277,64.8 1201.9,129.6 			"/>
			<polygon class="st20" points="1126.9,64.8 1201.9,129.6 1277,64.8 			"/>
			<polygon class="st18" points="901.7,129.6 826.6,64.8 751.6,129.6 			"/>
			<polygon class="st21" points="751.6,129.6 676.5,64.8 601.5,129.6 			"/>
			<polygon class="st21" points="526.4,64.8 601.5,129.6 676.5,64.8 			"/>
			<polygon class="st22" points="676.5,64.8 751.6,129.6 826.6,64.8 			"/>
			<polygon class="st8" points="601.5,129.6 526.4,64.8 451.4,129.6 			"/>
			<polygon class="st9" points="451.4,129.6 376.3,64.8 301.2,129.6 			"/>
			<polygon class="st14" points="226.2,64.8 301.2,129.6 376.3,64.8 			"/>
			<polygon class="st23" points="376.3,64.8 451.4,129.6 526.4,64.8 			"/>
			<polygon class="st21" points="301.2,129.6 226.2,64.8 151.1,129.6 			"/>
			<polygon class="st24" points="151.1,129.6 76.1,64.8 1,129.6 			"/>
			<polygon class="st25" points="1,64.8 1,129.6 76.1,64.8 			"/>
			<polygon class="st26" points="76.1,64.8 151.1,129.6 226.2,64.8 			"/>
			<polygon class="st27" points="1126.9,194.5 1051.8,129.6 976.8,194.5 			"/>
			<polygon class="st10" points="976.8,194.5 901.7,129.6 826.6,194.5 			"/>
			<polygon class="st17" points="751.6,129.6 826.6,194.5 901.7,129.6 			"/>
			<polygon class="st27" points="901.7,129.6 976.8,194.5 1051.8,129.6 			"/>
			<polygon class="st18" points="1126.9,194.5 1051.8,129.6 976.8,194.5 			"/>
			<polygon class="st21" points="901.7,129.6 976.8,194.5 1051.8,129.6 			"/>
			<polygon class="st28" points="1277,194.5 1201.9,129.6 1126.9,194.5 			"/>
			<polygon class="st29" points="1051.8,129.6 1126.9,194.5 1201.9,129.6 			"/>
			<polygon class="st30" points="1201.9,129.6 1277,194.5 1277,129.6 			"/>
			<polygon class="st12" points="826.6,194.5 751.6,129.6 676.5,194.5 			"/>
			<polygon class="st31" points="676.5,194.5 601.5,129.6 526.4,194.5 			"/>
			<polygon class="st32" points="451.4,129.6 526.4,194.5 601.5,129.6 			"/>
			<polygon class="st33" points="601.5,129.6 676.5,194.5 751.6,129.6 			"/>
			<polygon class="st21" points="526.4,194.5 451.4,129.6 376.3,194.5 			"/>
			<polygon class="st8" points="376.3,194.5 301.2,129.6 226.2,194.5 			"/>
			<polygon class="st12" points="151.1,129.6 226.2,194.5 301.2,129.6 			"/>
			<polygon class="st12" points="301.2,129.6 376.3,194.5 451.4,129.6 			"/>
			<polygon class="st34" points="226.2,194.5 151.1,129.6 76.1,194.5 			"/>
			<polygon class="st1" points="76.1,194.5 1,129.6 1,194.5 			"/>
			<polygon class="st12" points="1,129.6 76.1,194.5 151.1,129.6 			"/>
			<polygon class="st20" points="1201.9,259.3 1126.9,194.5 1051.8,259.3 			"/>
			<polygon class="st10" points="976.8,194.5 1051.8,259.3 1126.9,194.5 			"/>
			<polygon class="st35" points="1277,259.3 1277,194.5 1201.9,259.3 			"/>
			<polygon class="st2" points="1126.9,194.5 1201.9,259.3 1277,194.5 			"/>
			<polygon class="st36" points="1051.8,259.3 976.8,194.5 901.7,259.3 			"/>
			<polygon class="st12" points="901.7,259.3 826.6,194.5 751.6,259.3 			"/>
			<polygon class="st16" points="676.5,194.5 751.6,259.3 826.6,194.5 			"/>
			<polygon class="st10" points="826.6,194.5 901.7,259.3 976.8,194.5 			"/>
			<polygon class="st9" points="751.6,259.3 676.5,194.5 601.5,259.3 			"/>
			<polygon class="st11" points="601.5,259.3 526.4,194.5 451.4,259.3 			"/>
			<polygon class="st18" points="376.3,194.5 451.4,259.3 526.4,194.5 			"/>
			<polygon class="st25" points="526.4,194.5 601.5,259.3 676.5,194.5 			"/>
			<polygon class="st37" points="451.4,259.3 376.3,194.5 301.2,259.3 			"/>
			<polygon class="st34" points="301.2,259.3 226.2,194.5 151.1,259.3 			"/>
			<polygon class="st12" points="76.1,194.5 151.1,259.3 226.2,194.5 			"/>
			<polygon class="st20" points="226.2,194.5 301.2,259.3 376.3,194.5 			"/>
			<polygon class="st38" points="151.1,259.3 76.1,194.5 1,259.3 			"/>
			<polygon class="st39" points="1,194.5 1,259.3 76.1,194.5 			"/>
			<polygon class="st40" points="901.7,259.3 976.8,324.1 1051.8,259.3 			"/>
			<polygon class="st41" points="1126.9,324.1 1051.8,259.3 976.8,324.1 			"/>
			<polygon class="st2" points="1277,324.1 1201.9,259.3 1126.9,324.1 			"/>
			<polygon class="st42" points="1051.8,259.3 1126.9,324.1 1201.9,259.3 			"/>
			<polygon class="st43" points="1201.9,259.3 1277,324.1 1277,259.3 			"/>
			<polygon class="st44" points="976.8,324.1 901.7,259.3 826.6,324.1 			"/>
			<polygon class="st13" points="826.6,324.1 751.6,259.3 676.5,324.1 			"/>
			<polygon class="st4" points="601.5,259.3 676.5,324.1 751.6,259.3 			"/>
			<polygon class="st16" points="751.6,259.3 826.6,324.1 901.7,259.3 			"/>
			<polygon class="st45" points="676.5,324.1 601.5,259.3 526.4,324.1 			"/>
			<polygon class="st1" points="526.4,324.1 451.4,259.3 376.3,324.1 			"/>
			<polygon class="st39" points="301.2,259.3 376.3,324.1 451.4,259.3 			"/>
			<polygon class="st13" points="451.4,259.3 526.4,324.1 601.5,259.3 			"/>
			<polygon class="st38" points="376.3,324.1 301.2,259.3 226.2,324.1 			"/>
			<polygon class="st46" points="226.2,324.1 151.1,259.3 76.1,324.1 			"/>
			<polygon class="st47" points="1,259.3 76.1,324.1 151.1,259.3 			"/>
			<polygon class="st48" points="151.1,259.3 226.2,324.1 301.2,259.3 			"/>
			<polygon class="st49" points="76.1,324.1 1,259.3 1,324.1 			"/>
			<polygon class="st25" points="1201.9,388.9 1126.9,324.1 1051.8,388.9 			"/>
			<polygon class="st4" points="976.8,324.1 1051.8,388.9 1126.9,324.1 			"/>
			<polygon class="st50" points="1277,388.9 1277,324.1 1201.9,388.9 			"/>
			<polygon class="st41" points="1126.9,324.1 1201.9,388.9 1277,324.1 			"/>
			<polygon class="st22" points="1051.8,388.9 976.8,324.1 901.7,388.9 			"/>
			<polygon class="st28" points="826.6,324.1 901.7,388.9 976.8,324.1 			"/>
			<polygon class="st51" points="901.7,388.9 826.6,324.1 751.6,388.9 			"/>
			<polygon class="st32" points="751.6,388.9 676.5,324.1 601.5,388.9 			"/>
			<polygon class="st31" points="526.4,324.1 601.5,388.9 676.5,324.1 			"/>
			<polygon class="st13" points="676.5,324.1 751.6,388.9 826.6,324.1 			"/>
			<polygon class="st21" points="601.5,388.9 526.4,324.1 451.4,388.9 			"/>
			<polygon class="st5" points="451.4,388.9 376.3,324.1 301.2,388.9 			"/>
			<polygon class="st52" points="226.2,324.1 301.2,388.9 376.3,324.1 			"/>
			<polygon class="st20" points="376.3,324.1 451.4,388.9 526.4,324.1 			"/>
			<polygon class="st53" points="301.2,388.9 226.2,324.1 151.1,388.9 			"/>
			<polygon class="st54" points="151.1,388.9 76.1,324.1 1,388.9 			"/>
			<polygon class="st4" points="1,324.1 1,388.9 76.1,324.1 			"/>
			<polygon class="st29" points="76.1,324.1 151.1,388.9 226.2,324.1 			"/>
			<polygon class="st33" points="901.7,388.9 976.8,453.7 1051.8,388.9 			"/>
			<polygon class="st9" points="751.6,388.9 826.6,453.7 901.7,388.9 			"/>
			<polygon class="st27" points="1126.9,453.7 1051.8,388.9 976.8,453.7 			"/>
			<polygon class="st55" points="1126.9,453.7 1051.8,388.9 976.8,453.7 			"/>
			<polygon class="st56" points="1277,453.7 1201.9,388.9 1126.9,453.7 			"/>
			<polygon class="st57" points="1051.8,388.9 1126.9,453.7 1201.9,388.9 			"/>
			<polygon class="st58" points="1201.9,388.9 1277,453.7 1277,388.9 			"/>
			<polygon class="st59" points="976.8,453.7 901.7,388.9 826.6,453.7 			"/>
			<polygon class="st60" points="826.6,453.7 751.6,388.9 676.5,453.7 			"/>
			<polygon class="st54" points="676.5,453.7 601.5,388.9 526.4,453.7 			"/>
			<polygon class="st54" points="451.4,388.9 526.4,453.7 601.5,388.9 			"/>
			<polygon class="st15" points="601.5,388.9 676.5,453.7 751.6,388.9 			"/>
			<polygon class="st37" points="526.4,453.7 451.4,388.9 376.3,453.7 			"/>
			<polygon class="st1" points="376.3,453.7 301.2,388.9 226.2,453.7 			"/>
			<polygon class="st61" points="151.1,388.9 226.2,453.7 301.2,388.9 			"/>
			<polygon class="st23" points="301.2,388.9 376.3,453.7 451.4,388.9 			"/>
			<polygon class="st22" points="226.2,453.7 151.1,388.9 76.1,453.7 			"/>
			<polygon class="st46" points="76.1,453.7 1,388.9 1,453.7 			"/>
			<polygon class="st1" points="1,388.9 76.1,453.7 151.1,388.9 			"/>
			<polygon class="st62" points="1201.9,518.5 1126.9,453.7 1051.8,518.5 			"/>
			<polygon class="st34" points="976.8,453.7 1051.8,518.5 1126.9,453.7 			"/>
			<polygon class="st3" points="1277,518.5 1277,453.7 1201.9,518.5 			"/>
			<polygon class="st63" points="1126.9,453.7 1201.9,518.5 1277,453.7 			"/>
			<polygon class="st64" points="1051.8,518.5 976.8,453.7 901.7,518.5 			"/>
			<polygon class="st33" points="826.6,453.7 901.7,518.5 976.8,453.7 			"/>
			<polygon class="st51" points="901.7,518.5 826.6,453.7 751.6,518.5 			"/>
			<polygon class="st65" points="676.5,453.7 751.6,518.5 826.6,453.7 			"/>
			<polygon class="st7" points="751.6,518.5 676.5,453.7 601.5,518.5 			"/>
			<polygon class="st66" points="601.5,518.5 526.4,453.7 451.4,518.5 			"/>
			<polygon class="st46" points="376.3,453.7 451.4,518.5 526.4,453.7 			"/>
			<polygon class="st8" points="526.4,453.7 601.5,518.5 676.5,453.7 			"/>
			<polygon class="st53" points="451.4,518.5 376.3,453.7 301.2,518.5 			"/>
			<polygon class="st67" points="301.2,518.5 226.2,453.7 151.1,518.5 			"/>
			<polygon class="st7" points="76.1,453.7 151.1,518.5 226.2,453.7 			"/>
			<polygon class="st66" points="226.2,453.7 301.2,518.5 376.3,453.7 			"/>
			<polygon class="st68" points="151.1,518.5 76.1,453.7 1,518.5 			"/>
			<polygon class="st38" points="1,453.7 1,518.5 76.1,453.7 			"/>
			<polygon class="st69" points="901.7,518.5 976.8,583.4 1051.8,518.5 			"/>
			<polygon class="st66" points="751.6,518.5 826.6,583.4 901.7,518.5 			"/>
			<polygon class="st19" points="1126.9,583.4 1051.8,518.5 976.8,583.4 			"/>
			<polygon class="st19" points="1126.9,583.4 1051.8,518.5 976.8,583.4 			"/>
			<polygon class="st70" points="1277,583.4 1201.9,518.5 1126.9,583.4 			"/>
			<polygon class="st38" points="1051.8,518.5 1126.9,583.4 1201.9,518.5 			"/>
			<polygon class="st71" points="1201.9,518.5 1277,583.4 1277,518.5 			"/>
			<polygon class="st71" points="1201.9,518.5 1277,583.4 1277,518.5 			"/>
			<polygon class="st72" points="976.8,583.4 901.7,518.5 826.6,583.4 			"/>
			<polygon class="st73" points="826.6,583.4 751.6,518.5 676.5,583.4 			"/>
			<polygon class="st71" points="601.5,518.5 676.5,583.4 751.6,518.5 			"/>
			<polygon class="st7" points="676.5,583.4 601.5,518.5 526.4,583.4 			"/>
			<polygon class="st3" points="526.4,583.4 451.4,518.5 376.3,583.4 			"/>
			<polygon class="st54" points="301.2,518.5 376.3,583.4 451.4,518.5 			"/>
			<polygon class="st74" points="451.4,518.5 526.4,583.4 601.5,518.5 			"/>
			<polygon class="st32" points="376.3,583.4 301.2,518.5 226.2,583.4 			"/>
			<polygon class="st4" points="226.2,583.4 151.1,518.5 76.1,583.4 			"/>
			<polygon class="st4" points="1,518.5 76.1,583.4 151.1,518.5 			"/>
			<polygon class="st53" points="151.1,518.5 226.2,583.4 301.2,518.5 			"/>
			<polygon class="st75" points="76.1,583.4 1,518.5 1,583.4 			"/>
			<g>
				<polygon class="st47" points="1201.9,648.2 1126.9,583.4 1051.8,648.2 				"/>
				<polygon class="st15" points="976.8,583.4 1051.8,648.2 1126.9,583.4 				"/>
				<polygon class="st76" points="1277,648.2 1277,583.4 1201.9,648.2 				"/>
				<polygon class="st19" points="1126.9,583.4 1201.9,648.2 1277,583.4 				"/>
				<polygon class="st63" points="1051.8,648.2 976.8,583.4 901.7,648.2 				"/>
				<polygon class="st77" points="826.6,583.4 901.7,648.2 976.8,583.4 				"/>
				<polygon class="st78" points="901.7,648.2 826.6,583.4 751.6,648.2 				"/>
				<polygon class="st79" points="676.5,583.4 751.6,648.2 826.6,583.4 				"/>
				<polygon class="st70" points="751.6,648.2 676.5,583.4 601.5,648.2 				"/>
				<polygon class="st36" points="526.4,583.4 601.5,648.2 676.5,583.4 				"/>
				<polygon class="st5" points="601.5,648.2 526.4,583.4 451.4,648.2 				"/>
				<polygon class="st51" points="451.4,648.2 376.3,583.4 301.2,648.2 				"/>
				<polygon class="st1" points="226.2,583.4 301.2,648.2 376.3,583.4 				"/>
				<polygon class="st14" points="376.3,583.4 451.4,648.2 526.4,583.4 				"/>
				<polygon class="st80" points="301.2,648.2 226.2,583.4 151.1,648.2 				"/>
				<polygon class="st81" points="151.1,648.2 76.1,583.4 1,648.2 				"/>
				<polygon class="st81" points="1,583.4 1,648.2 76.1,583.4 				"/>
				<polygon class="st57" points="76.1,583.4 151.1,648.2 226.2,583.4 				"/>
			</g>
			<polygon class="st77" points="901.7,648.2 976.8,713 1051.8,648.2 			"/>
			<polygon class="st38" points="751.6,648.2 826.6,713 901.7,648.2 			"/>
			<polygon class="st79" points="1126.9,713 1051.8,648.2 976.8,713 			"/>
			<polygon class="st66" points="1126.9,713 1051.8,648.2 976.8,713 			"/>
			<polygon class="st19" points="1277,713 1201.9,648.2 1126.9,713 			"/>
			<polygon class="st15" points="1051.8,648.2 1126.9,713 1201.9,648.2 			"/>
			<polygon class="st79" points="1201.9,648.2 1277,713 1277,648.2 			"/>
			<polygon class="st66" points="1201.9,648.2 1277,713 1277,648.2 			"/>
			<polygon class="st69" points="976.8,713 901.7,648.2 826.6,713 			"/>
			<polygon class="st73" points="826.6,713 751.6,648.2 676.5,713 			"/>
			<polygon class="st36" points="601.5,648.2 676.5,713 751.6,648.2 			"/>
			<polygon class="st70" points="676.5,713 601.5,648.2 526.4,713 			"/>
			<polygon class="st5" points="451.4,648.2 526.4,713 601.5,648.2 			"/>
			<polygon class="st36" points="526.4,713 451.4,648.2 376.3,713 			"/>
			<polygon class="st1" points="376.3,713 301.2,648.2 226.2,713 			"/>
			<polygon class="st57" points="151.1,648.2 226.2,713 301.2,648.2 			"/>
			<polygon class="st59" points="301.2,648.2 376.3,713 451.4,648.2 			"/>
			<polygon class="st80" points="226.2,713 151.1,648.2 76.1,713 			"/>
			<polygon class="st38" points="76.1,713 1,648.2 1,713 			"/>
			<polygon class="st75" points="1,648.2 76.1,713 151.1,648.2 			"/>
		</g>
	</g>
	<g id="Feature_Page_-_Horizontal_1_">
		<g>
			<defs>
				<rect id="SVGID_3_" x="1" y="712" width="1276" height="713"/>
			</defs>
			<use xlink:href="#SVGID_3_"  style="overflow:visible;fill:#F2F2F2;"/>
			<clipPath id="SVGID_4_">
				<use xlink:href="#SVGID_3_"  style="overflow:visible;"/>
			</clipPath>
		</g>
		<g class="st0">
			<polygon class="st1" points="1051.8,712 1126.9,776.8 1201.9,712 			"/>
			<polygon class="st2" points="1277,776.8 1201.9,712 1126.9,776.8 			"/>
			<polygon class="st3" points="1126.9,776.8 1051.8,712 976.8,776.8 			"/>
			<polygon class="st4" points="901.7,712 976.8,776.8 1051.8,712 			"/>
			<polygon class="st5" points="1201.9,712 1277,776.8 1277,712 			"/>
			<polygon class="st6" points="976.8,776.8 901.7,712 826.6,776.8 			"/>
			<polygon class="st7" points="826.6,776.8 751.6,712 676.5,776.8 			"/>
			<polygon class="st8" points="601.5,712 676.5,776.8 751.6,712 			"/>
			<polygon class="st9" points="751.6,712 826.6,776.8 901.7,712 			"/>
			<polygon class="st8" points="676.5,776.8 601.5,712 526.4,776.8 			"/>
			<polygon class="st10" points="526.4,776.8 451.4,712 376.3,776.8 			"/>
			<polygon class="st11" points="301.2,712 376.3,776.8 451.4,712 			"/>
			<polygon class="st12" points="451.4,712 526.4,776.8 601.5,712 			"/>
			<polygon class="st13" points="376.3,776.8 301.2,712 226.2,776.8 			"/>
			<polygon class="st14" points="226.2,776.8 151.1,712 76.1,776.8 			"/>
			<polygon class="st5" points="76.1,776.8 1,712 1,776.8 			"/>
			<polygon class="st15" points="1,712 76.1,776.8 151.1,712 			"/>
			<polygon class="st16" points="151.1,712 226.2,776.8 301.2,712 			"/>
			<polygon class="st17" points="1201.9,841.6 1126.9,776.8 1051.8,841.6 			"/>
			<polygon class="st18" points="1051.8,841.6 976.8,776.8 901.7,841.6 			"/>
			<polygon class="st13" points="826.6,776.8 901.7,841.6 976.8,776.8 			"/>
			<polygon class="st19" points="976.8,776.8 1051.8,841.6 1126.9,776.8 			"/>
			<polygon class="st9" points="1277,841.6 1277,776.8 1201.9,841.6 			"/>
			<polygon class="st20" points="1126.9,776.8 1201.9,841.6 1277,776.8 			"/>
			<polygon class="st18" points="901.7,841.6 826.6,776.8 751.6,841.6 			"/>
			<polygon class="st21" points="751.6,841.6 676.5,776.8 601.5,841.6 			"/>
			<polygon class="st21" points="526.4,776.8 601.5,841.6 676.5,776.8 			"/>
			<polygon class="st22" points="676.5,776.8 751.6,841.6 826.6,776.8 			"/>
			<polygon class="st8" points="601.5,841.6 526.4,776.8 451.4,841.6 			"/>
			<polygon class="st9" points="451.4,841.6 376.3,776.8 301.2,841.6 			"/>
			<polygon class="st14" points="226.2,776.8 301.2,841.6 376.3,776.8 			"/>
			<polygon class="st23" points="376.3,776.8 451.4,841.6 526.4,776.8 			"/>
			<polygon class="st21" points="301.2,841.6 226.2,776.8 151.1,841.6 			"/>
			<polygon class="st24" points="151.1,841.6 76.1,776.8 1,841.6 			"/>
			<polygon class="st25" points="1,776.8 1,841.6 76.1,776.8 			"/>
			<polygon class="st26" points="76.1,776.8 151.1,841.6 226.2,776.8 			"/>
			<polygon class="st82" points="1126.9,906.5 1051.8,841.6 976.8,906.5 			"/>
			<polygon class="st10" points="976.8,906.5 901.7,841.6 826.6,906.5 			"/>
			<polygon class="st17" points="751.6,841.6 826.6,906.5 901.7,841.6 			"/>
			<polygon class="st82" points="901.7,841.6 976.8,906.5 1051.8,841.6 			"/>
			<polygon class="st18" points="1126.9,906.5 1051.8,841.6 976.8,906.5 			"/>
			<polygon class="st21" points="901.7,841.6 976.8,906.5 1051.8,841.6 			"/>
			<polygon class="st28" points="1277,906.5 1201.9,841.6 1126.9,906.5 			"/>
			<polygon class="st29" points="1051.8,841.6 1126.9,906.5 1201.9,841.6 			"/>
			<polygon class="st30" points="1201.9,841.6 1277,906.5 1277,841.6 			"/>
			<polygon class="st12" points="826.6,906.5 751.6,841.6 676.5,906.5 			"/>
			<polygon class="st31" points="676.5,906.5 601.5,841.6 526.4,906.5 			"/>
			<polygon class="st32" points="451.4,841.6 526.4,906.5 601.5,841.6 			"/>
			<polygon class="st33" points="601.5,841.6 676.5,906.5 751.6,841.6 			"/>
			<polygon class="st21" points="526.4,906.5 451.4,841.6 376.3,906.5 			"/>
			<polygon class="st8" points="376.3,906.5 301.2,841.6 226.2,906.5 			"/>
			<polygon class="st12" points="151.1,841.6 226.2,906.5 301.2,841.6 			"/>
			<polygon class="st12" points="301.2,841.6 376.3,906.5 451.4,841.6 			"/>
			<polygon class="st34" points="226.2,906.5 151.1,841.6 76.1,906.5 			"/>
			<polygon class="st1" points="76.1,906.5 1,841.6 1,906.5 			"/>
			<polygon class="st12" points="1,841.6 76.1,906.5 151.1,841.6 			"/>
			<polygon class="st20" points="1201.9,971.3 1126.9,906.5 1051.8,971.3 			"/>
			<polygon class="st10" points="976.8,906.5 1051.8,971.3 1126.9,906.5 			"/>
			<polygon class="st35" points="1277,971.3 1277,906.5 1201.9,971.3 			"/>
			<polygon class="st2" points="1126.9,906.5 1201.9,971.3 1277,906.5 			"/>
			<polygon class="st36" points="1051.8,971.3 976.8,906.5 901.7,971.3 			"/>
			<polygon class="st12" points="901.7,971.3 826.6,906.5 751.6,971.3 			"/>
			<polygon class="st16" points="676.5,906.5 751.6,971.3 826.6,906.5 			"/>
			<polygon class="st10" points="826.6,906.5 901.7,971.3 976.8,906.5 			"/>
			<polygon class="st9" points="751.6,971.3 676.5,906.5 601.5,971.3 			"/>
			<polygon class="st11" points="601.5,971.3 526.4,906.5 451.4,971.3 			"/>
			<polygon class="st18" points="376.3,906.5 451.4,971.3 526.4,906.5 			"/>
			<polygon class="st25" points="526.4,906.5 601.5,971.3 676.5,906.5 			"/>
			<polygon class="st37" points="451.4,971.3 376.3,906.5 301.2,971.3 			"/>
			<polygon class="st34" points="301.2,971.3 226.2,906.5 151.1,971.3 			"/>
			<polygon class="st12" points="76.1,906.5 151.1,971.3 226.2,906.5 			"/>
			<polygon class="st20" points="226.2,906.5 301.2,971.3 376.3,906.5 			"/>
			<polygon class="st38" points="151.1,971.3 76.1,906.5 1,971.3 			"/>
			<polygon class="st39" points="1,906.5 1,971.3 76.1,906.5 			"/>
			<polygon class="st40" points="901.7,971.3 976.8,1036.1 1051.8,971.3 			"/>
			<polygon class="st41" points="1126.9,1036.1 1051.8,971.3 976.8,1036.1 			"/>
			<polygon class="st2" points="1277,1036.1 1201.9,971.3 1126.9,1036.1 			"/>
			<polygon class="st42" points="1051.8,971.3 1126.9,1036.1 1201.9,971.3 			"/>
			<polygon class="st43" points="1201.9,971.3 1277,1036.1 1277,971.3 			"/>
			<polygon class="st44" points="976.8,1036.1 901.7,971.3 826.6,1036.1 			"/>
			<polygon class="st13" points="826.6,1036.1 751.6,971.3 676.5,1036.1 			"/>
			<polygon class="st4" points="601.5,971.3 676.5,1036.1 751.6,971.3 			"/>
			<polygon class="st16" points="751.6,971.3 826.6,1036.1 901.7,971.3 			"/>
			<polygon class="st45" points="676.5,1036.1 601.5,971.3 526.4,1036.1 			"/>
			<polygon class="st1" points="526.4,1036.1 451.4,971.3 376.3,1036.1 			"/>
			<polygon class="st39" points="301.2,971.3 376.3,1036.1 451.4,971.3 			"/>
			<polygon class="st13" points="451.4,971.3 526.4,1036.1 601.5,971.3 			"/>
			<polygon class="st38" points="376.3,1036.1 301.2,971.3 226.2,1036.1 			"/>
			<polygon class="st46" points="226.2,1036.1 151.1,971.3 76.1,1036.1 			"/>
			<polygon class="st47" points="1,971.3 76.1,1036.1 151.1,971.3 			"/>
			<polygon class="st48" points="151.1,971.3 226.2,1036.1 301.2,971.3 			"/>
			<polygon class="st49" points="76.1,1036.1 1,971.3 1,1036.1 			"/>
			<polygon class="st25" points="1201.9,1100.9 1126.9,1036.1 1051.8,1100.9 			"/>
			<polygon class="st4" points="976.8,1036.1 1051.8,1100.9 1126.9,1036.1 			"/>
			<polygon class="st50" points="1277,1100.9 1277,1036.1 1201.9,1100.9 			"/>
			<polygon class="st41" points="1126.9,1036.1 1201.9,1100.9 1277,1036.1 			"/>
			<polygon class="st22" points="1051.8,1100.9 976.8,1036.1 901.7,1100.9 			"/>
			<polygon class="st28" points="826.6,1036.1 901.7,1100.9 976.8,1036.1 			"/>
			<polygon class="st51" points="901.7,1100.9 826.6,1036.1 751.6,1100.9 			"/>
			<polygon class="st32" points="751.6,1100.9 676.5,1036.1 601.5,1100.9 			"/>
			<polygon class="st31" points="526.4,1036.1 601.5,1100.9 676.5,1036.1 			"/>
			<polygon class="st13" points="676.5,1036.1 751.6,1100.9 826.6,1036.1 			"/>
			<polygon class="st21" points="601.5,1100.9 526.4,1036.1 451.4,1100.9 			"/>
			<polygon class="st5" points="451.4,1100.9 376.3,1036.1 301.2,1100.9 			"/>
			<polygon class="st52" points="226.2,1036.1 301.2,1100.9 376.3,1036.1 			"/>
			<polygon class="st20" points="376.3,1036.1 451.4,1100.9 526.4,1036.1 			"/>
			<polygon class="st53" points="301.2,1100.9 226.2,1036.1 151.1,1100.9 			"/>
			<polygon class="st54" points="151.1,1100.9 76.1,1036.1 1,1100.9 			"/>
			<polygon class="st4" points="1,1036.1 1,1100.9 76.1,1036.1 			"/>
			<polygon class="st29" points="76.1,1036.1 151.1,1100.9 226.2,1036.1 			"/>
			<polygon class="st33" points="901.7,1100.9 976.8,1165.7 1051.8,1100.9 			"/>
			<polygon class="st9" points="751.6,1100.9 826.6,1165.7 901.7,1100.9 			"/>
			<polygon class="st82" points="1126.9,1165.7 1051.8,1100.9 976.8,1165.7 			"/>
			<polygon class="st55" points="1126.9,1165.7 1051.8,1100.9 976.8,1165.7 			"/>
			<polygon class="st56" points="1277,1165.7 1201.9,1100.9 1126.9,1165.7 			"/>
			<polygon class="st57" points="1051.8,1100.9 1126.9,1165.7 1201.9,1100.9 			"/>
			<polygon class="st58" points="1201.9,1100.9 1277,1165.7 1277,1100.9 			"/>
			<polygon class="st59" points="976.8,1165.7 901.7,1100.9 826.6,1165.7 			"/>
			<polygon class="st60" points="826.6,1165.7 751.6,1100.9 676.5,1165.7 			"/>
			<polygon class="st54" points="676.5,1165.7 601.5,1100.9 526.4,1165.7 			"/>
			<polygon class="st54" points="451.4,1100.9 526.4,1165.7 601.5,1100.9 			"/>
			<polygon class="st15" points="601.5,1100.9 676.5,1165.7 751.6,1100.9 			"/>
			<polygon class="st37" points="526.4,1165.7 451.4,1100.9 376.3,1165.7 			"/>
			<polygon class="st1" points="376.3,1165.7 301.2,1100.9 226.2,1165.7 			"/>
			<polygon class="st61" points="151.1,1100.9 226.2,1165.7 301.2,1100.9 			"/>
			<polygon class="st23" points="301.2,1100.9 376.3,1165.7 451.4,1100.9 			"/>
			<polygon class="st22" points="226.2,1165.7 151.1,1100.9 76.1,1165.7 			"/>
			<polygon class="st46" points="76.1,1165.7 1,1100.9 1,1165.7 			"/>
			<polygon class="st1" points="1,1100.9 76.1,1165.7 151.1,1100.9 			"/>
			<polygon class="st62" points="1201.9,1230.5 1126.9,1165.7 1051.8,1230.5 			"/>
			<polygon class="st34" points="976.8,1165.7 1051.8,1230.5 1126.9,1165.7 			"/>
			<polygon class="st3" points="1277,1230.5 1277,1165.7 1201.9,1230.5 			"/>
			<polygon class="st63" points="1126.9,1165.7 1201.9,1230.5 1277,1165.7 			"/>
			<polygon class="st64" points="1051.8,1230.5 976.8,1165.7 901.7,1230.5 			"/>
			<polygon class="st33" points="826.6,1165.7 901.7,1230.5 976.8,1165.7 			"/>
			<polygon class="st51" points="901.7,1230.5 826.6,1165.7 751.6,1230.5 			"/>
			<polygon class="st65" points="676.5,1165.7 751.6,1230.5 826.6,1165.7 			"/>
			<polygon class="st7" points="751.6,1230.5 676.5,1165.7 601.5,1230.5 			"/>
			<polygon class="st66" points="601.5,1230.5 526.4,1165.7 451.4,1230.5 			"/>
			<polygon class="st46" points="376.3,1165.7 451.4,1230.5 526.4,1165.7 			"/>
			<polygon class="st8" points="526.4,1165.7 601.5,1230.5 676.5,1165.7 			"/>
			<polygon class="st53" points="451.4,1230.5 376.3,1165.7 301.2,1230.5 			"/>
			<polygon class="st67" points="301.2,1230.5 226.2,1165.7 151.1,1230.5 			"/>
			<polygon class="st7" points="76.1,1165.7 151.1,1230.5 226.2,1165.7 			"/>
			<polygon class="st66" points="226.2,1165.7 301.2,1230.5 376.3,1165.7 			"/>
			<polygon class="st68" points="151.1,1230.5 76.1,1165.7 1,1230.5 			"/>
			<polygon class="st38" points="1,1165.7 1,1230.5 76.1,1165.7 			"/>
			<polygon class="st69" points="901.7,1230.5 976.8,1295.4 1051.8,1230.5 			"/>
			<polygon class="st66" points="751.6,1230.5 826.6,1295.4 901.7,1230.5 			"/>
			<polygon class="st19" points="1126.9,1295.4 1051.8,1230.5 976.8,1295.4 			"/>
			<polygon class="st19" points="1126.9,1295.4 1051.8,1230.5 976.8,1295.4 			"/>
			<polygon class="st70" points="1277,1295.4 1201.9,1230.5 1126.9,1295.4 			"/>
			<polygon class="st38" points="1051.8,1230.5 1126.9,1295.4 1201.9,1230.5 			"/>
			<polygon class="st71" points="1201.9,1230.5 1277,1295.4 1277,1230.5 			"/>
			<polygon class="st71" points="1201.9,1230.5 1277,1295.4 1277,1230.5 			"/>
			<polygon class="st72" points="976.8,1295.4 901.7,1230.5 826.6,1295.4 			"/>
			<polygon class="st73" points="826.6,1295.4 751.6,1230.5 676.5,1295.4 			"/>
			<polygon class="st71" points="601.5,1230.5 676.5,1295.4 751.6,1230.5 			"/>
			<polygon class="st7" points="676.5,1295.4 601.5,1230.5 526.4,1295.4 			"/>
			<polygon class="st3" points="526.4,1295.4 451.4,1230.5 376.3,1295.4 			"/>
			<polygon class="st54" points="301.2,1230.5 376.3,1295.4 451.4,1230.5 			"/>
			<polygon class="st74" points="451.4,1230.5 526.4,1295.4 601.5,1230.5 			"/>
			<polygon class="st32" points="376.3,1295.4 301.2,1230.5 226.2,1295.4 			"/>
			<polygon class="st4" points="226.2,1295.4 151.1,1230.5 76.1,1295.4 			"/>
			<polygon class="st4" points="1,1230.5 76.1,1295.4 151.1,1230.5 			"/>
			<polygon class="st53" points="151.1,1230.5 226.2,1295.4 301.2,1230.5 			"/>
			<polygon class="st75" points="76.1,1295.4 1,1230.5 1,1295.4 			"/>
			<g>
				<polygon class="st47" points="1201.9,1360.2 1126.9,1295.4 1051.8,1360.2 				"/>
				<polygon class="st15" points="976.8,1295.4 1051.8,1360.2 1126.9,1295.4 				"/>
				<polygon class="st76" points="1277,1360.2 1277,1295.4 1201.9,1360.2 				"/>
				<polygon class="st19" points="1126.9,1295.4 1201.9,1360.2 1277,1295.4 				"/>
				<polygon class="st63" points="1051.8,1360.2 976.8,1295.4 901.7,1360.2 				"/>
				<polygon class="st77" points="826.6,1295.4 901.7,1360.2 976.8,1295.4 				"/>
				<polygon class="st78" points="901.7,1360.2 826.6,1295.4 751.6,1360.2 				"/>
				<polygon class="st79" points="676.5,1295.4 751.6,1360.2 826.6,1295.4 				"/>
				<polygon class="st70" points="751.6,1360.2 676.5,1295.4 601.5,1360.2 				"/>
				<polygon class="st36" points="526.4,1295.4 601.5,1360.2 676.5,1295.4 				"/>
				<polygon class="st5" points="601.5,1360.2 526.4,1295.4 451.4,1360.2 				"/>
				<polygon class="st51" points="451.4,1360.2 376.3,1295.4 301.2,1360.2 				"/>
				<polygon class="st1" points="226.2,1295.4 301.2,1360.2 376.3,1295.4 				"/>
				<polygon class="st14" points="376.3,1295.4 451.4,1360.2 526.4,1295.4 				"/>
				<polygon class="st80" points="301.2,1360.2 226.2,1295.4 151.1,1360.2 				"/>
				<polygon class="st81" points="151.1,1360.2 76.1,1295.4 1,1360.2 				"/>
				<polygon class="st81" points="1,1295.4 1,1360.2 76.1,1295.4 				"/>
				<polygon class="st57" points="76.1,1295.4 151.1,1360.2 226.2,1295.4 				"/>
			</g>
			<polygon class="st77" points="901.7,1360.2 976.8,1425 1051.8,1360.2 			"/>
			<polygon class="st38" points="751.6,1360.2 826.6,1425 901.7,1360.2 			"/>
			<polygon class="st79" points="1126.9,1425 1051.8,1360.2 976.8,1425 			"/>
			<polygon class="st66" points="1126.9,1425 1051.8,1360.2 976.8,1425 			"/>
			<polygon class="st19" points="1277,1425 1201.9,1360.2 1126.9,1425 			"/>
			<polygon class="st15" points="1051.8,1360.2 1126.9,1425 1201.9,1360.2 			"/>
			<polygon class="st79" points="1201.9,1360.2 1277,1425 1277,1360.2 			"/>
			<polygon class="st66" points="1201.9,1360.2 1277,1425 1277,1360.2 			"/>
			<polygon class="st69" points="976.8,1425 901.7,1360.2 826.6,1425 			"/>
			<polygon class="st73" points="826.6,1425 751.6,1360.2 676.5,1425 			"/>
			<polygon class="st36" points="601.5,1360.2 676.5,1425 751.6,1360.2 			"/>
			<polygon class="st70" points="676.5,1425 601.5,1360.2 526.4,1425 			"/>
			<polygon class="st5" points="451.4,1360.2 526.4,1425 601.5,1360.2 			"/>
			<polygon class="st36" points="526.4,1425 451.4,1360.2 376.3,1425 			"/>
			<polygon class="st1" points="376.3,1425 301.2,1360.2 226.2,1425 			"/>
			<polygon class="st57" points="151.1,1360.2 226.2,1425 301.2,1360.2 			"/>
			<polygon class="st59" points="301.2,1360.2 376.3,1425 451.4,1360.2 			"/>
			<polygon class="st80" points="226.2,1425 151.1,1360.2 76.1,1425 			"/>
			<polygon class="st38" points="76.1,1425 1,1360.2 1,1425 			"/>
			<polygon class="st75" points="1,1360.2 76.1,1425 151.1,1360.2 			"/>
		</g>
	</g>
</g>
</svg>
