<svg id="Camada_1" data-name="Camada 1" xmlns="http://www.w3.org/2000/svg" viewBox="0 0 12.96 34.95"><defs><style>.cls-1{fill:#f7f7f7;}</style></defs><title>info</title><path class="cls-1" d="M27.58,46.53V36.7H26.23a1.29,1.29,0,0,1-.94-.41,1.32,1.32,0,0,1-.41-1V32.05a1.32,1.32,0,0,1,.41-1,1.29,1.29,0,0,1,.94-.41h7.56a1.29,1.29,0,0,1,.94.41,1.32,1.32,0,0,1,.41,1V46.53h1.35a1.29,1.29,0,0,1,.94.41,1.32,1.32,0,0,1,.41,1v3.28a1.32,1.32,0,0,1-.41,1,1.29,1.29,0,0,1-.94.41H26.23a1.29,1.29,0,0,1-.94-.41,1.32,1.32,0,0,1-.41-1V47.89a1.32,1.32,0,0,1,.41-1,1.29,1.29,0,0,1,.94-.41ZM27.91,19a5,5,0,0,0,0,7,4.85,4.85,0,0,0,6.89,0,5,5,0,0,0,0-7,4.85,4.85,0,0,0-6.89,0Z" transform="translate(-24.88 -17.58)"/></svg>